FILE "Joe Montana's NFL Football (1993)(Sega)(US).img" BINARY
  TRACK 01 MODE1/2352
    INDEX 01 00:00:00
  TRACK 02 AUDIO
    PREGAP 00:02:00
    INDEX 01 17:10:54
  TRACK 03 AUDIO
    INDEX 00 20:20:46
    INDEX 01 20:22:48
  TRACK 04 AUDIO
    INDEX 00 23:19:51
    INDEX 01 23:21:53
  TRACK 05 AUDIO
    INDEX 00 24:37:07
    INDEX 01 24:39:07
  TRACK 06 AUDIO
    INDEX 00 25:26:66
    INDEX 01 25:28:68
